<?xml version="1.0" standalone="no"?>
<!DOCTYPE svg PUBLIC "-//W3C//DTD SVG 20010904//EN"
 "http://www.w3.org/TR/2001/REC-SVG-20010904/DTD/svg10.dtd">
<svg version="1.0" xmlns="http://www.w3.org/2000/svg"
 width="500.000000pt" height="500.000000pt" viewBox="0 0 500.000000 500.000000"
 preserveAspectRatio="xMidYMid meet">

<g transform="translate(0.000000,500.000000) scale(0.100000,-0.100000)"
fill="#000000" stroke="none">
<path d="M2280 4489 c-336 -34 -699 -180 -988 -396 -100 -75 -268 -237 -345
-333 -285 -354 -447 -810 -447 -1260 0 -450 162 -906 447 -1260 77 -96 245
-258 345 -333 665 -499 1559 -542 2256 -109 181 112 379 286 505 442 489 606
584 1441 243 2135 -111 225 -230 390 -408 560 -433 417 -1006 614 -1608 554z
m550 -38 c405 -71 743 -241 1032 -520 328 -316 516 -672 594 -1126 25 -143 25
-462 0 -609 -53 -321 -179 -621 -367 -876 -80 -109 -300 -329 -409 -409 -250
-185 -537 -308 -846 -362 -185 -33 -483 -33 -668 0 -308 54 -596 177 -846 361
-110 81 -329 301 -413 415 -189 256 -322 582 -369 901 -19 129 -16 454 6 579
54 318 170 600 352 857 81 115 336 368 451 448 298 208 614 325 988 364 95 10
384 -3 495 -23z"/>
<path d="M2359 4143 c-28 -87 -54 -164 -57 -170 -3 -9 8 -13 36 -13 37 0 41 3
52 35 l12 35 74 0 74 0 14 -35 c14 -32 17 -34 48 -28 18 3 34 7 35 7 2 2 -25
76 -93 259 l-26 67 -58 0 -58 0 -53 -157z m145 15 l25 -68 -54 0 -54 0 20 58
c28 82 29 85 33 81 3 -2 16 -34 30 -71z"/>
<path d="M2721 4236 c-35 -175 -51 -269 -47 -275 6 -9 214 -46 221 -39 3 2 6
15 7 28 3 22 -2 25 -69 38 -40 8 -73 20 -73 26 0 6 9 62 21 123 12 62 19 119
16 127 -3 7 -19 16 -36 18 -29 4 -31 3 -40 -46z"/>
<path d="M2037 4247 c-20 -6 -53 -24 -72 -40 -82 -65 -67 -210 28 -281 59 -43
212 -13 253 49 14 22 24 99 14 109 -11 10 -62 -8 -67 -23 -24 -76 -49 -95
-119 -89 -35 3 -41 8 -61 48 -37 72 -30 131 18 155 45 24 94 19 118 -11 17
-21 25 -24 55 -18 45 8 45 24 3 70 -28 31 -41 37 -83 40 -27 2 -66 -2 -87 -9z"/>
<path d="M3074 4179 c-80 -24 -141 -149 -112 -234 24 -72 140 -134 221 -118
30 6 87 56 87 78 0 7 -14 18 -31 26 -27 11 -33 10 -43 -3 -25 -34 -55 -41
-102 -23 -65 25 -80 67 -50 139 31 76 88 96 154 56 27 -17 32 -26 32 -58 0
-33 4 -39 31 -49 42 -16 49 -10 49 42 0 33 -7 51 -27 76 -46 54 -146 87 -209
68z"/>
<path d="M1550 4040 c-91 -48 -122 -129 -71 -184 31 -33 77 -34 155 -2 63 26
82 25 91 -4 8 -26 -4 -49 -36 -65 -34 -18 -63 -19 -87 -4 -15 9 -24 8 -46 -6
l-27 -18 22 -23 c35 -38 80 -41 144 -10 105 52 136 131 76 195 -36 38 -65 40
-141 5 -67 -30 -94 -29 -98 4 -7 45 57 84 99 62 16 -9 27 -7 51 8 l30 19 -23
22 c-29 27 -90 27 -139 1z"/>
<path d="M3525 3908 c-11 -6 -28 -17 -37 -25 -16 -14 -15 -17 13 -40 28 -24
31 -24 48 -9 45 41 139 -12 112 -63 -16 -29 -40 -32 -164 -23 -104 7 -109 7
-129 -15 -12 -13 -20 -25 -17 -27 56 -51 216 -175 223 -173 5 2 14 11 20 21
12 18 3 28 -89 103 l-39 33 95 -6 c130 -9 179 17 179 94 0 86 -141 172 -215
130z"/>
<path d="M1315 3867 l-27 -23 92 -102 92 -103 -41 -36 c-40 -34 -41 -36 -25
-54 25 -28 37 -24 83 26 64 70 60 91 -46 213 -49 55 -91 101 -95 101 -4 1 -19
-9 -33 -22z"/>
<path d="M2285 3765 c-94 -14 -267 -71 -357 -116 -298 -150 -537 -425 -642
-739 -19 -58 -42 -145 -51 -194 -19 -114 -19 -318 0 -432 80 -455 403 -839
835 -992 162 -57 228 -67 430 -67 202 0 268 10 430 67 234 83 442 236 593 437
171 228 257 485 257 771 0 430 -204 816 -561 1060 -155 106 -358 186 -532 210
-103 13 -302 11 -402 -5z m385 -15 c789 -122 1271 -894 1026 -1644 -62 -189
-153 -339 -288 -477 -131 -133 -249 -216 -409 -284 -613 -264 -1331 -2 -1628
593 -47 94 -98 254 -117 367 -19 121 -14 339 11 455 114 516 528 905 1055 989
77 12 273 13 350 1z"/>
<path d="M2487 2973 c-4 -3 -7 -107 -7 -230 l0 -223 -225 0 c-193 0 -225 -2
-225 -15 0 -13 32 -15 225 -15 l225 0 0 -230 c0 -190 2 -230 14 -230 8 0 17 7
20 16 3 9 6 112 6 230 l0 214 225 0 c193 0 225 2 225 15 0 13 -32 15 -225 15
l-225 0 0 219 c0 171 -3 221 -13 230 -8 6 -17 8 -20 4z"/>
<path d="M3250 2650 c-31 -7 -32 -7 -7 -9 l27 -1 0 -134 c0 -132 0 -135 -22
-139 -13 -2 15 -4 62 -4 47 0 75 2 63 4 -23 4 -23 7 -23 149 l0 144 -32 -1
c-18 -1 -49 -5 -68 -9z"/>
<path d="M1640 2643 c-47 -17 -67 -73 -34 -91 38 -21 74 12 52 48 -15 23 1 46
25 37 35 -13 27 -101 -12 -122 l-26 -14 26 -1 c56 0 66 -130 10 -138 -30 -5
-50 13 -33 30 21 21 14 47 -15 54 -19 5 -30 2 -40 -11 -18 -25 -17 -29 11 -61
20 -24 31 -28 73 -27 27 0 64 8 81 17 58 30 56 105 -4 133 -31 15 -33 18 -15
25 11 4 27 19 37 33 32 49 -13 96 -89 94 -18 0 -39 -3 -47 -6z"/>
<path d="M831 2343 c-12 -45 -42 -73 -78 -73 -12 0 -25 -4 -28 -10 -3 -5 3
-10 15 -10 43 0 79 -28 91 -73 9 -29 14 -36 16 -22 12 61 44 95 88 95 8 0 15
5 15 10 0 6 -11 10 -25 10 -31 0 -62 30 -71 67 -3 16 -7 33 -9 38 -1 6 -8 -9
-14 -32z"/>
<path d="M4151 2362 c-1 -26 -18 -63 -35 -75 -6 -4 -29 -12 -51 -19 l-40 -11
39 -9 c53 -11 75 -33 83 -82 l6 -40 14 46 c15 52 30 68 76 78 27 6 29 8 12 14
-53 19 -71 34 -87 76 -12 32 -17 38 -17 22z"/>
</g>
</svg>
